<svg width="94" height="26" viewBox="0 0 94 26" fill="none" xmlns="http://www.w3.org/2000/svg">
<path d="M93.4778 23.0017C93.4778 24.3873 92.2811 25.5096 90.801 25.5096H3.20249C1.72307 25.5096 0.522217 24.3873 0.522217 23.0017V3.00191C0.522217 1.61699 1.72307 0.490723 3.20249 0.490723H90.8003C92.2811 0.490723 93.4771 1.61699 93.4771 3.00191L93.4778 23.0017Z" fill="black"/>
<path d="M90.5185 0.520813C92.1304 0.520813 93.4421 1.74525 93.4421 3.25V22.75C93.4421 24.2548 92.1304 25.4792 90.5185 25.4792H3.48148C1.86956 25.4792 0.557907 24.2548 0.557907 22.75V3.25C0.557907 1.74525 1.86956 0.520813 3.48148 0.520813H90.5185ZM90.5185 1.37408e-06H3.48148C1.56754 1.37408e-06 0 1.46331 0 3.25V22.75C0 24.5367 1.56754 26 3.48148 26H90.5185C92.4325 26 94 24.5367 94 22.75V3.25C94 1.46331 92.4325 1.37408e-06 90.5185 1.37408e-06Z" fill="#A6A6A6"/>
<path d="M20.978 12.8596C20.9579 10.7646 22.8156 9.74541 22.9005 9.69796C21.8484 8.26601 20.2177 8.07036 19.6446 8.05476C18.275 7.92021 16.9465 8.81981 16.2488 8.81981C15.5372 8.81981 14.4628 8.06776 13.3049 8.08986C11.8148 8.11131 10.4208 8.91666 9.65626 10.1673C8.07846 12.7172 9.2552 16.4645 10.7669 18.5256C11.523 19.5351 12.4066 20.6622 13.5632 20.6225C14.6947 20.579 15.1173 19.9491 16.4828 19.9491C17.8357 19.9491 18.2325 20.6225 19.4121 20.5972C20.6264 20.579 21.3909 19.5832 22.1207 18.5646C22.9945 17.4076 23.3454 16.2682 23.3594 16.2097C23.3308 16.2006 21.001 15.3705 20.978 12.8596Z" fill="white"/>
<path d="M18.7499 6.69887C19.3585 5.98842 19.7748 5.02187 19.6593 4.04102C18.7784 4.07742 17.6769 4.60977 17.0426 5.30462C16.4814 5.91692 15.98 6.92052 16.1095 7.86432C17.099 7.93322 18.1149 7.39827 18.7499 6.69887Z" fill="white"/>
<path d="M37.3527 20.4778H35.7714L34.9052 17.937H31.8944L31.0693 20.4778H29.5298L32.5127 11.8276H34.3551L37.3527 20.4778ZM34.6441 16.871L33.8607 14.6122C33.7779 14.3815 33.6226 13.8381 33.3935 12.9827H33.3657C33.2745 13.3506 33.1275 13.894 32.9256 14.6122L32.1562 16.871H34.6441V16.871Z" fill="white"/>
<path d="M45.0238 17.2824C45.0238 18.3432 44.7168 19.1817 44.1026 19.7972C43.5526 20.3452 42.8695 20.6188 42.0541 20.6188C41.174 20.6188 40.5418 20.3237 40.1567 19.7335H40.1289V23.0193H38.6444V16.2937C38.6444 15.6268 38.6256 14.9424 38.5894 14.2404H39.8949L39.9778 15.229H40.0056C40.5007 14.4841 41.252 14.1123 42.2602 14.1123C43.0484 14.1123 43.7064 14.4029 44.2328 14.9846C44.7606 15.567 45.0238 16.3327 45.0238 17.2824ZM43.5115 17.3331C43.5115 16.726 43.3653 16.2255 43.0714 15.8316C42.7504 15.4208 42.3194 15.2154 41.7791 15.2154C41.4128 15.2154 41.08 15.3298 40.7827 15.5553C40.4847 15.7828 40.2897 16.0799 40.1985 16.4478C40.1525 16.6194 40.1296 16.7598 40.1296 16.8703V17.9103C40.1296 18.364 40.2786 18.7468 40.5766 19.0595C40.8746 19.3721 41.2617 19.5281 41.738 19.5281C42.2971 19.5281 42.7323 19.3266 43.0436 18.9249C43.3555 18.5226 43.5115 17.9922 43.5115 17.3331Z" fill="white"/>
<path d="M52.7089 17.2824C52.7089 18.3432 52.4019 19.1817 51.787 19.7972C51.2377 20.3452 50.5546 20.6188 49.7392 20.6188C48.8591 20.6188 48.2269 20.3237 47.8425 19.7335H47.8147V23.0193H46.3302V16.2937C46.3302 15.6268 46.3114 14.9424 46.2751 14.2404H47.5807L47.6636 15.229H47.6914C48.1858 14.4841 48.9371 14.1123 49.946 14.1123C50.7335 14.1123 51.3915 14.4029 51.9193 14.9846C52.445 15.567 52.7089 16.3327 52.7089 17.2824ZM51.1966 17.3331C51.1966 16.726 51.0496 16.2255 50.7558 15.8316C50.4348 15.4208 50.0052 15.2154 49.4642 15.2154C49.0972 15.2154 48.7651 15.3298 48.4671 15.5553C48.1691 15.7828 47.9748 16.0799 47.8836 16.4478C47.8383 16.6194 47.8147 16.7598 47.8147 16.8703V17.9103C47.8147 18.364 47.9637 18.7468 48.2603 19.0595C48.5583 19.3715 48.9454 19.5281 49.4231 19.5281C49.9822 19.5281 50.4174 19.3266 50.7287 18.9249C51.0406 18.5226 51.1966 17.9922 51.1966 17.3331Z" fill="white"/>
<path d="M61.3011 18.0518C61.3011 18.7876 61.0275 19.3863 60.4781 19.8484C59.8744 20.3535 59.034 20.6057 57.954 20.6057C56.9569 20.6057 56.1576 20.4263 55.5525 20.0668L55.8965 18.9118C56.5482 19.2797 57.2633 19.4643 58.0424 19.4643C58.6016 19.4643 59.0368 19.346 59.3494 19.1107C59.6606 18.8754 59.8159 18.5595 59.8159 18.1656C59.8159 17.8146 59.6878 17.5188 59.4309 17.279C59.1753 17.0391 58.7485 16.8162 58.1525 16.6101C56.5301 16.0453 55.7196 15.2178 55.7196 14.1297C55.7196 13.4186 56.0037 12.8356 56.5726 12.3819C57.1394 11.9275 57.8955 11.7007 58.8411 11.7007C59.6843 11.7007 60.3848 11.8378 60.9439 12.1115L60.5728 13.2412C60.0506 12.976 59.4601 12.8434 58.7993 12.8434C58.2771 12.8434 57.8691 12.9636 57.5766 13.2028C57.3294 13.4167 57.2055 13.6773 57.2055 13.9861C57.2055 14.328 57.3468 14.6107 57.6309 14.833C57.8781 15.0384 58.3272 15.2607 58.979 15.5006C59.7762 15.8002 60.3618 16.1506 60.7385 16.5523C61.1138 16.9527 61.3011 17.4538 61.3011 18.0518Z" fill="white"/>
<path d="M66.2094 15.2802H64.5731V18.3085C64.5731 19.0788 64.8614 19.4636 65.4393 19.4636C65.7046 19.4636 65.9246 19.4421 66.0987 19.3992L66.1398 20.4516C65.8473 20.5536 65.4623 20.605 64.9853 20.605C64.399 20.605 63.9409 20.4379 63.6101 20.1045C63.2808 19.7704 63.1151 19.2101 63.1151 18.4229V15.2789H62.1403V14.2389H63.1151V13.0968L64.5731 12.686V14.2389H66.2094V15.2802Z" fill="white"/>
<path d="M73.5922 17.3075C73.5922 18.2663 73.2984 19.0534 72.7121 19.669C72.0973 20.3027 71.2812 20.6186 70.2639 20.6186C69.2835 20.6186 68.503 20.3151 67.9209 19.708C67.3388 19.1009 67.0477 18.3345 67.0477 17.4109C67.0477 16.4443 67.3471 15.6526 67.948 15.0371C68.5476 14.4209 69.3566 14.1128 70.3739 14.1128C71.3543 14.1128 72.1432 14.4163 72.7386 15.0241C73.3081 15.6136 73.5922 16.3748 73.5922 17.3075ZM72.052 17.3524C72.052 16.7771 71.9204 16.2838 71.6537 15.8723C71.3425 15.3744 70.8975 15.1261 70.321 15.1261C69.7243 15.1261 69.271 15.3751 68.9598 15.8723C68.6931 16.2844 68.5615 16.7856 68.5615 17.3784C68.5615 17.9536 68.6931 18.447 68.9598 18.8578C69.2808 19.3557 69.7292 19.604 70.3078 19.604C70.8746 19.604 71.3195 19.3505 71.6405 18.8448C71.9141 18.4255 72.052 17.927 72.052 17.3524Z" fill="white"/>
<path d="M78.4176 15.4591C78.2707 15.4338 78.114 15.4208 77.9497 15.4208C77.4274 15.4208 77.0236 15.6047 76.7395 15.9733C76.4923 16.2983 76.3684 16.7091 76.3684 17.205V20.4778H74.8845L74.8985 16.2047C74.8985 15.4858 74.8797 14.8312 74.8428 14.241H76.1358L76.1901 15.4344H76.2312C76.3879 15.0243 76.635 14.6941 76.9734 14.4464C77.3042 14.2235 77.6614 14.1123 78.0464 14.1123C78.1836 14.1123 78.3076 14.1214 78.4176 14.1377V15.4591Z" fill="white"/>
<path d="M85.0567 17.0639C85.0567 17.3122 85.0393 17.5215 85.0024 17.6925H80.5488C80.5663 18.3087 80.7814 18.7799 81.195 19.1049C81.5703 19.3955 82.0556 19.5411 82.6517 19.5411C83.3111 19.5411 83.9126 19.4429 84.4537 19.246L84.6862 20.208C84.054 20.4654 83.3076 20.5934 82.4462 20.5934C81.4102 20.5934 80.5969 20.3087 80.005 19.74C79.4146 19.1712 79.1187 18.4075 79.1187 17.4494C79.1187 16.5088 79.3937 15.7256 79.9445 15.1009C80.521 14.434 81.3001 14.1006 82.2805 14.1006C83.2435 14.1006 83.9725 14.434 84.4676 15.1009C84.8596 15.6307 85.0567 16.2859 85.0567 17.0639ZM83.6411 16.7045C83.6508 16.2937 83.5541 15.9388 83.3528 15.6391C83.0959 15.2537 82.7011 15.0613 82.1698 15.0613C81.6845 15.0613 81.2897 15.2491 80.9882 15.6261C80.741 15.9258 80.5941 16.2852 80.5488 16.7038H83.6411V16.7045Z" fill="white"/>
<path d="M34.1533 6.50615C34.1533 7.2712 33.9075 7.8471 33.4166 8.23385C32.9619 8.5907 32.3157 8.76945 31.4788 8.76945C31.0638 8.76945 30.7087 8.75255 30.4114 8.71875V4.5386C30.7992 4.4801 31.217 4.4502 31.6682 4.4502C32.4655 4.4502 33.0664 4.61205 33.4716 4.93575C33.9256 5.3017 34.1533 5.82495 34.1533 6.50615ZM33.3839 6.525C33.3839 6.02905 33.2432 5.6488 32.9619 5.3836C32.6806 5.11905 32.2698 4.98645 31.7288 4.98645C31.499 4.98645 31.3033 5.00075 31.1411 5.03065V8.2085C31.2309 8.2215 31.3952 8.22735 31.6341 8.22735C32.1925 8.22735 32.6235 8.0824 32.9271 7.7925C33.2307 7.5026 33.3839 7.0801 33.3839 6.525Z" fill="white"/>
<path d="M38.2329 7.17457C38.2329 7.64582 38.0887 8.03192 37.8005 8.33482C37.4983 8.64617 37.0979 8.80152 36.598 8.80152C36.1161 8.80152 35.7325 8.65267 35.4463 8.35367C35.1608 8.05532 35.0181 7.67897 35.0181 7.22527C35.0181 6.75077 35.165 6.36142 35.4602 6.05917C35.7554 5.75692 36.1523 5.60547 36.6523 5.60547C37.1341 5.60547 37.5213 5.75432 37.8144 6.05267C38.0929 6.34257 38.2329 6.71697 38.2329 7.17457ZM37.476 7.19667C37.476 6.91392 37.4105 6.67147 37.2803 6.46932C37.1272 6.22492 36.9092 6.10272 36.6258 6.10272C36.3327 6.10272 36.1099 6.22492 35.9567 6.46932C35.8258 6.67147 35.761 6.91782 35.761 7.20902C35.761 7.49177 35.8265 7.73422 35.9567 7.93637C36.1147 8.18077 36.3348 8.30297 36.6189 8.30297C36.8974 8.30297 37.116 8.17882 37.2734 7.92987C37.4085 7.72382 37.476 7.47942 37.476 7.19667Z" fill="white"/>
<path d="M43.703 5.66748L42.6759 8.73158H42.0075L41.582 7.40103C41.4741 7.06888 41.3864 6.73868 41.3182 6.41108H41.3049C41.2416 6.74778 41.1538 7.07733 41.041 7.40103L40.5891 8.73158H39.913L38.9473 5.66748H39.6972L40.0683 7.12413C40.1581 7.46863 40.2319 7.79688 40.2911 8.10758H40.3043C40.3587 7.85148 40.4485 7.52518 40.5752 7.13063L41.041 5.66813H41.6357L42.082 7.09943C42.1899 7.44848 42.2776 7.78453 42.3452 8.10823H42.3654C42.4148 7.79298 42.4893 7.45693 42.5882 7.09943L42.9865 5.66813H43.703V5.66748Z" fill="white"/>
<path d="M47.486 8.73148H46.7563V6.97648C46.7563 6.43568 46.5362 6.16528 46.0948 6.16528C45.8782 6.16528 45.7035 6.23938 45.5677 6.38823C45.4333 6.53708 45.3651 6.71258 45.3651 6.91343V8.73083H44.6353V6.54293C44.6353 6.27383 44.6263 5.98198 44.6089 5.66608H45.2502L45.2843 6.14513H45.3045C45.3894 5.99628 45.5162 5.87343 45.6826 5.77528C45.8803 5.66088 46.1017 5.60303 46.3441 5.60303C46.6504 5.60303 46.9053 5.69533 47.1079 5.88058C47.3599 6.10743 47.486 6.44608 47.486 6.89588V8.73148V8.73148Z" fill="white"/>
<path d="M49.4983 8.73177H48.7693V4.26172H49.4983V8.73177Z" fill="white"/>
<path d="M53.7945 7.17457C53.7945 7.64582 53.6504 8.03192 53.3621 8.33482C53.0599 8.64617 52.6589 8.80152 52.1596 8.80152C51.6771 8.80152 51.2934 8.65267 51.0079 8.35367C50.7225 8.05532 50.5797 7.67897 50.5797 7.22527C50.5797 6.75077 50.7266 6.36142 51.0219 6.05917C51.3171 5.75692 51.714 5.60547 52.2132 5.60547C52.6958 5.60547 53.0822 5.75432 53.376 6.05267C53.6546 6.34257 53.7945 6.71697 53.7945 7.17457ZM53.0369 7.19667C53.0369 6.91392 52.9715 6.67147 52.8413 6.46932C52.6888 6.22492 52.4702 6.10272 52.1875 6.10272C51.8936 6.10272 51.6708 6.22492 51.5183 6.46932C51.3874 6.67147 51.3227 6.91782 51.3227 7.20902C51.3227 7.49177 51.3881 7.73422 51.5183 7.93637C51.6764 8.18077 51.8964 8.30297 52.1805 8.30297C52.459 8.30297 52.677 8.17882 52.8343 7.92987C52.9701 7.72382 53.0369 7.47942 53.0369 7.19667Z" fill="white"/>
<path d="M57.3261 8.73197H56.6709L56.6166 8.37902H56.5964C56.3722 8.66047 56.0526 8.80152 55.6376 8.80152C55.3278 8.80152 55.0771 8.70857 54.8884 8.52397C54.7171 8.35627 54.6315 8.14762 54.6315 7.89997C54.6315 7.52557 54.7986 7.24022 55.1349 7.04262C55.4705 6.84502 55.9426 6.74817 56.5505 6.75272V6.69552C56.5505 6.29187 56.3235 6.09037 55.8688 6.09037C55.545 6.09037 55.2595 6.16642 55.013 6.31722L54.8647 5.87002C55.1697 5.69387 55.5464 5.60547 55.9906 5.60547C56.8485 5.60547 57.2788 6.02797 57.2788 6.87297V8.00137C57.2788 8.30752 57.2948 8.55127 57.3261 8.73197ZM56.5686 7.67897V7.20642C55.7636 7.19342 55.3612 7.39947 55.3612 7.82392C55.3612 7.98382 55.4071 8.10342 55.5011 8.18337C55.5951 8.26332 55.7149 8.30297 55.8576 8.30297C56.0178 8.30297 56.1675 8.25552 56.304 8.16127C56.4411 8.06637 56.5254 7.94612 56.5567 7.79857C56.5644 7.76542 56.5686 7.72512 56.5686 7.67897Z" fill="white"/>
<path d="M61.4724 8.73177H60.8249L60.7908 8.23972H60.7706C60.5638 8.61412 60.2114 8.80132 59.7164 8.80132C59.3209 8.80132 58.9915 8.65637 58.7304 8.36647C58.4693 8.07657 58.3391 7.70022 58.3391 7.23807C58.3391 6.74212 58.4805 6.34042 58.7645 6.03362C59.0396 5.74762 59.3766 5.60462 59.7777 5.60462C60.2184 5.60462 60.5269 5.74307 60.7023 6.02062H60.7163V4.26172H61.4467V7.90627C61.4467 8.20462 61.455 8.47957 61.4724 8.73177ZM60.7163 7.43957V6.92867C60.7163 6.84027 60.7093 6.76877 60.6961 6.71417C60.655 6.55037 60.5666 6.41257 60.4322 6.30142C60.2964 6.19027 60.1328 6.13437 59.9441 6.13437C59.6718 6.13437 59.4588 6.23512 59.3021 6.43727C59.1468 6.63942 59.0681 6.89747 59.0681 7.21272C59.0681 7.51562 59.1426 7.76132 59.2923 7.95047C59.4504 8.15197 59.6635 8.25272 59.9301 8.25272C60.1697 8.25272 60.3612 8.16887 60.5067 8.00052C60.6473 7.84517 60.7163 7.65797 60.7163 7.43957Z" fill="white"/>
<path d="M67.7135 7.17457C67.7135 7.64582 67.5693 8.03192 67.2811 8.33482C66.9789 8.64617 66.5792 8.80152 66.0786 8.80152C65.5974 8.80152 65.2138 8.65267 64.9269 8.35367C64.6414 8.05532 64.4987 7.67897 64.4987 7.22527C64.4987 6.75077 64.6456 6.36142 64.9408 6.05917C65.236 5.75692 65.6329 5.60547 66.1336 5.60547C66.6147 5.60547 67.0025 5.75432 67.295 6.05267C67.5735 6.34257 67.7135 6.71697 67.7135 7.17457ZM66.9573 7.19667C66.9573 6.91392 66.8918 6.67147 66.7616 6.46932C66.6077 6.22492 66.3905 6.10272 66.1064 6.10272C65.814 6.10272 65.5911 6.22492 65.4373 6.46932C65.3064 6.67147 65.2416 6.91782 65.2416 7.20902C65.2416 7.49177 65.3071 7.73422 65.4373 7.93637C65.5953 8.18077 65.8154 8.30297 66.0994 8.30297C66.378 8.30297 66.5973 8.17882 66.7547 7.92987C66.889 7.72382 66.9573 7.47942 66.9573 7.19667Z" fill="white"/>
<path d="M71.637 8.73148H70.908V6.97648C70.908 6.43568 70.688 6.16528 70.2458 6.16528C70.0293 6.16528 69.8545 6.23938 69.7194 6.38823C69.5843 6.53708 69.5168 6.71258 69.5168 6.91343V8.73083H68.7864V6.54293C68.7864 6.27383 68.778 5.98198 68.7606 5.66608H69.4012L69.4353 6.14513H69.4555C69.5412 5.99628 69.6679 5.87343 69.8336 5.77528C70.0321 5.66088 70.2528 5.60303 70.4958 5.60303C70.8015 5.60303 71.0563 5.69533 71.2589 5.88058C71.5117 6.10743 71.637 6.44608 71.637 6.89588V8.73148V8.73148Z" fill="white"/>
<path d="M76.548 6.17765H75.7445V7.66615C75.7445 8.04445 75.8872 8.2336 76.1699 8.2336C76.3008 8.2336 76.4095 8.2232 76.4951 8.20175L76.5139 8.7185C76.3698 8.7692 76.1804 8.79455 75.9471 8.79455C75.6588 8.79455 75.4346 8.71265 75.2724 8.54885C75.1095 8.38505 75.0287 8.10945 75.0287 7.7227V6.17765H74.549V5.6674H75.0287V5.1058L75.7438 4.9043V5.66675H76.5473V6.17765H76.548Z" fill="white"/>
<path d="M80.4111 8.73177H79.6807V6.98977C79.6807 6.44052 79.4606 6.16557 79.0199 6.16557C78.6815 6.16557 78.4503 6.32482 78.3236 6.64332C78.302 6.71027 78.2894 6.79217 78.2894 6.88837V8.73112H77.5604V4.26172H78.2894V6.10837H78.3034C78.5332 5.77232 78.8625 5.60462 79.2893 5.60462C79.5915 5.60462 79.8415 5.69692 80.0399 5.88217C80.2871 6.11292 80.4111 6.45612 80.4111 6.90982V8.73177V8.73177Z" fill="white"/>
<path d="M84.396 7.05447C84.396 7.17667 84.3862 7.27937 84.3688 7.36322H82.1803C82.1901 7.66612 82.2945 7.89687 82.4972 8.05677C82.6824 8.19977 82.9212 8.27127 83.2137 8.27127C83.5374 8.27127 83.8327 8.22317 84.0986 8.12632L84.2128 8.59952C83.9016 8.72562 83.5353 8.78867 83.1113 8.78867C82.603 8.78867 82.2026 8.64892 81.913 8.36942C81.6219 8.08992 81.4778 7.71487 81.4778 7.24427C81.4778 6.78212 81.6122 6.39732 81.883 6.09052C82.1657 5.76292 82.548 5.59912 83.0305 5.59912C83.5026 5.59912 83.8612 5.76292 84.1035 6.09052C84.2992 6.35052 84.396 6.67227 84.396 7.05447ZM83.6997 6.87832C83.7052 6.67617 83.6572 6.50197 83.5583 6.35507C83.4316 6.16592 83.2387 6.07102 82.9776 6.07102C82.7395 6.07102 82.5452 6.16332 82.3969 6.34857C82.2757 6.49612 82.204 6.67227 82.1803 6.87832H83.6997Z" fill="white"/>
</svg>
