<svg width="94" height="26" viewBox="0 0 94 26" fill="none" xmlns="http://www.w3.org/2000/svg">
<path d="M90.5185 26H3.48148C1.56754 26 0 24.5367 0 22.75V3.25C0 1.46331 1.56754 1.37408e-06 3.48148 1.37408e-06H90.5185C92.4325 1.37408e-06 94 1.46331 94 3.25V22.75C94 24.5367 92.4325 26 90.5185 26Z" fill="black"/>
<path d="M90.5185 0.520813C92.1304 0.520813 93.4421 1.74525 93.4421 3.25V22.75C93.4421 24.2548 92.1304 25.4792 90.5185 25.4792H3.48148C1.86956 25.4792 0.557907 24.2548 0.557907 22.75V3.25C0.557907 1.74525 1.86956 0.520813 3.48148 0.520813H90.5185ZM90.5185 1.37408e-06H3.48148C1.56754 1.37408e-06 0 1.46331 0 3.25V22.75C0 24.5367 1.56754 26 3.48148 26H90.5185C92.4325 26 94 24.5367 94 22.75V3.25C94 1.46331 92.4325 1.37408e-06 90.5185 1.37408e-06Z" fill="#A6A6A6"/>
<path d="M33.0166 6.6581C33.0166 7.20085 32.8425 7.63554 32.4996 7.95973C32.1053 8.34404 31.5918 8.53741 30.9625 8.53741C30.3611 8.53741 29.8476 8.34079 29.4263 7.95323C29.0042 7.55998 28.7936 7.07735 28.7936 6.49966C28.7936 5.92198 29.0042 5.43935 29.4263 5.04935C29.8476 4.65854 30.3611 4.46191 30.9625 4.46191C31.262 4.46191 31.5474 4.5196 31.8199 4.62685C32.0914 4.73491 32.3125 4.88116 32.4726 5.06154L32.1088 5.40441C31.8294 5.09648 31.4491 4.94454 30.9625 4.94454C30.5239 4.94454 30.1435 5.08754 29.8206 5.37598C29.5012 5.66523 29.341 6.03979 29.341 6.49966C29.341 6.95954 29.5012 7.33735 29.8206 7.6266C30.1435 7.91179 30.5239 8.05804 30.9625 8.05804C31.4282 8.05804 31.8199 7.91179 32.1288 7.62335C32.3325 7.43241 32.4483 7.16916 32.4787 6.83279H30.9625V6.36316H32.9853C33.0097 6.46473 33.0166 6.56304 33.0166 6.6581V6.6581Z" fill="white" stroke="white" stroke-width="0.16" stroke-miterlimit="10"/>
<path d="M36.2258 5.02983H34.3257V6.26483H36.0386V6.73446H34.3257V7.96946H36.2258V8.44802H33.7878V4.55127H36.2258V5.02983Z" fill="white" stroke="white" stroke-width="0.16" stroke-miterlimit="10"/>
<path d="M38.4903 8.44802H37.9524V5.02983H36.787V4.55127H39.6566V5.02983H38.4903V8.44802V8.44802Z" fill="white" stroke="white" stroke-width="0.16" stroke-miterlimit="10"/>
<path d="M41.7334 8.44802V4.55127H42.2704V8.44802H41.7334Z" fill="white" stroke="white" stroke-width="0.16" stroke-miterlimit="10"/>
<path d="M44.6508 8.44802H44.1173V5.02983H42.9475V4.55127H45.8206V5.02983H44.6508V8.44802Z" fill="white" stroke="white" stroke-width="0.16" stroke-miterlimit="10"/>
<path d="M51.2535 7.94673C50.8418 8.34079 50.3318 8.53741 49.7234 8.53741C49.1115 8.53741 48.6015 8.34079 48.1898 7.94673C47.779 7.55348 47.5745 7.07085 47.5745 6.49966C47.5745 5.92848 47.779 5.44585 48.1898 5.0526C48.6015 4.65854 49.1115 4.46191 49.7234 4.46191C50.3283 4.46191 50.8384 4.65854 51.25 5.05585C51.6643 5.45235 51.8689 5.93173 51.8689 6.49966C51.8689 7.07085 51.6643 7.55348 51.2535 7.94673ZM48.5876 7.6201C48.8974 7.91179 49.2743 8.05804 49.7234 8.05804C50.169 8.05804 50.5494 7.91179 50.8558 7.6201C51.1647 7.32841 51.3214 6.95385 51.3214 6.49966C51.3214 6.04548 51.1647 5.67091 50.8558 5.37923C50.5494 5.08754 50.169 4.94129 49.7234 4.94129C49.2743 4.94129 48.8974 5.08754 48.5876 5.37923C48.2786 5.67091 48.1219 6.04548 48.1219 6.49966C48.1219 6.95385 48.2786 7.32841 48.5876 7.6201V7.6201Z" fill="white" stroke="white" stroke-width="0.16" stroke-miterlimit="10"/>
<path d="M52.6234 8.44802V4.55127H53.2762L55.3059 7.58189H55.3294L55.3059 6.83277V4.55127H55.8429V8.44802H55.2824L53.1569 5.26789H53.1334L53.1569 6.02027V8.44802H52.6234V8.44802Z" fill="white" stroke="white" stroke-width="0.16" stroke-miterlimit="10"/>
<path d="M47.4422 14.1391C45.8068 14.1391 44.4707 15.301 44.4707 16.9041C44.4707 18.4941 45.8068 19.6682 47.4422 19.6682C49.0811 19.6682 50.4171 18.4941 50.4171 16.9041C50.4171 15.301 49.0811 14.1391 47.4422 14.1391ZM47.4422 18.5795C46.5448 18.5795 45.7728 17.888 45.7728 16.9041C45.7728 15.9071 46.5448 15.2279 47.4422 15.2279C48.3395 15.2279 49.115 15.9071 49.115 16.9041C49.115 17.888 48.3395 18.5795 47.4422 18.5795V18.5795ZM40.9588 14.1391C39.3199 14.1391 37.9874 15.301 37.9874 16.9041C37.9874 18.4941 39.3199 19.6682 40.9588 19.6682C42.5968 19.6682 43.9302 18.4941 43.9302 16.9041C43.9302 15.301 42.5968 14.1391 40.9588 14.1391ZM40.9588 18.5795C40.0606 18.5795 39.286 17.888 39.286 16.9041C39.286 15.9071 40.0606 15.2279 40.9588 15.2279C41.8562 15.2279 42.6282 15.9071 42.6282 16.9041C42.6282 17.888 41.8562 18.5795 40.9588 18.5795ZM33.2438 14.9866V16.1615H36.2492C36.1613 16.818 35.9263 17.3006 35.566 17.637C35.1273 18.0432 34.4441 18.4941 33.2438 18.4941C31.3943 18.4941 29.946 17.1007 29.946 15.3741C29.946 13.6476 31.3943 12.2541 33.2438 12.2541C34.2439 12.2541 34.9715 12.619 35.5085 13.0918L36.3955 12.2639C35.6443 11.5944 34.6451 11.0801 33.2438 11.0801C30.7076 11.0801 28.576 13.0065 28.576 15.3741C28.576 17.7418 30.7076 19.6682 33.2438 19.6682C34.6147 19.6682 35.6443 19.249 36.4538 18.4625C37.2832 17.6881 37.5417 16.5994 37.5417 15.7203C37.5417 15.4473 37.5174 15.1962 37.4738 14.9866H33.2438ZM64.7913 15.8974C64.5467 15.2791 63.7921 14.1391 62.255 14.1391C60.7319 14.1391 59.4637 15.2596 59.4637 16.9041C59.4637 18.4527 60.7188 19.6682 62.4012 19.6682C63.7616 19.6682 64.5467 18.8939 64.8696 18.443L63.86 17.8149C63.5232 18.2748 63.0645 18.5795 62.4012 18.5795C61.7424 18.5795 61.2698 18.2975 60.9669 17.7418L64.9279 16.2118L64.7913 15.8974V15.8974ZM60.7528 16.818C60.7188 15.752 61.6397 15.206 62.2994 15.206C62.8164 15.206 63.2551 15.4473 63.4013 15.7926L60.7528 16.818V16.818ZM57.5333 19.5H58.8353V11.375H57.5333V19.5ZM55.4009 14.755H55.3573C55.0649 14.4316 54.507 14.1391 53.8002 14.1391C52.3171 14.1391 50.9611 15.3546 50.9611 16.913C50.9611 18.4625 52.3171 19.6682 53.8002 19.6682C54.507 19.6682 55.0649 19.3733 55.3573 19.0401H55.4009V19.4366C55.4009 20.4937 54.7959 21.0616 53.8203 21.0616C53.0247 21.0616 52.5312 20.5254 52.3276 20.0745L51.1952 20.5156C51.5216 21.2485 52.3859 22.1504 53.8203 22.1504C55.3469 22.1504 56.635 21.3119 56.635 19.2717V14.3073H55.4009V14.755V14.755ZM53.9117 18.5795C53.0143 18.5795 52.2632 17.8783 52.2632 16.913C52.2632 15.9388 53.0143 15.2279 53.9117 15.2279C54.796 15.2279 55.4931 15.9388 55.4931 16.913C55.4931 17.8783 54.796 18.5795 53.9117 18.5795V18.5795ZM70.8874 11.375H67.7732V19.5H69.0718V16.4215H70.8874C72.3296 16.4215 73.7439 15.4473 73.7439 13.8978C73.7439 12.3492 72.3261 11.375 70.8874 11.375V11.375ZM70.9213 15.2913H69.0718V12.5052H70.9213C71.8909 12.5052 72.4444 13.2568 72.4444 13.8978C72.4444 14.5267 71.8909 15.2913 70.9213 15.2913ZM78.9487 14.1237C78.0105 14.1237 77.0348 14.5105 76.6335 15.3676L77.7859 15.8186C78.034 15.3676 78.49 15.2214 78.9722 15.2214C79.6459 15.2214 80.3291 15.5992 80.3396 16.2663V16.3516C80.1046 16.2248 79.6015 16.0371 78.9827 16.0371C77.7415 16.0371 76.4769 16.675 76.4769 17.8653C76.4769 18.954 77.4935 19.6552 78.6363 19.6552C79.5101 19.6552 79.9923 19.2871 80.2952 18.859H80.3396V19.487H81.5938V16.3703C81.5938 14.9297 80.4414 14.1237 78.9487 14.1237ZM78.7921 18.5762C78.3673 18.5762 77.7755 18.3796 77.7755 17.888C77.7755 17.2591 78.5135 17.0178 79.1524 17.0178C79.7242 17.0178 79.9923 17.1356 80.3396 17.2908C80.2377 18.0432 79.5441 18.5762 78.7921 18.5762V18.5762ZM86.1632 14.3016L84.6705 17.8238H84.6261L83.083 14.3016H81.6826L84.0012 19.2238L82.6783 21.9627H84.0352L87.608 14.3016H86.1632V14.3016ZM74.4576 19.5H75.7597V11.375H74.4576V19.5Z" fill="white"/>
<path d="M7.2659 4.90022C7.06136 5.10009 6.94299 5.41128 6.94299 5.81428V20.189C6.94299 20.592 7.06136 20.9032 7.2659 21.1031L7.31638 21.147L15.9452 13.0951V12.905L7.31638 4.85309L7.2659 4.90022Z" fill="url(#paint0_linear_179248_40)"/>
<path d="M18.8183 15.7803L15.9452 13.095V12.9048L18.8218 10.2195L18.8862 10.2545L22.2928 12.0639C23.265 12.5774 23.265 13.4224 22.2928 13.9391L18.8862 15.7453L18.8183 15.7803V15.7803Z" fill="url(#paint1_linear_179248_40)"/>
<path d="M18.8862 15.7451L15.9452 12.9997L7.26587 21.1027C7.58878 21.4196 8.11535 21.4578 8.71416 21.1409L18.8862 15.7451" fill="url(#paint2_linear_179248_40)"/>
<path d="M18.8862 10.2546L8.71416 4.85875C8.11535 4.54513 7.58878 4.58331 7.26587 4.90019L15.9452 13L18.8862 10.2546Z" fill="url(#paint3_linear_179248_40)"/>
<defs>
<linearGradient id="paint0_linear_179248_40" x1="15.1791" y1="20.3387" x2="4.2963" y2="8.68082" gradientUnits="userSpaceOnUse">
<stop stop-color="#00A0FF"/>
<stop offset="0.0066" stop-color="#00A1FF"/>
<stop offset="0.2601" stop-color="#00BEFF"/>
<stop offset="0.5122" stop-color="#00D2FF"/>
<stop offset="0.7604" stop-color="#00DFFF"/>
<stop offset="1" stop-color="#00E3FF"/>
</linearGradient>
<linearGradient id="paint1_linear_179248_40" x1="23.5588" y1="12.999" x2="6.71056" y2="12.999" gradientUnits="userSpaceOnUse">
<stop stop-color="#FFE000"/>
<stop offset="0.4087" stop-color="#FFBD00"/>
<stop offset="0.7754" stop-color="#FFA500"/>
<stop offset="1" stop-color="#FF9C00"/>
</linearGradient>
<linearGradient id="paint2_linear_179248_40" x1="17.287" y1="11.5072" x2="2.52901" y2="-4.30187" gradientUnits="userSpaceOnUse">
<stop stop-color="#FF3A44"/>
<stop offset="1" stop-color="#C31162"/>
</linearGradient>
<linearGradient id="paint3_linear_179248_40" x1="5.0811" y1="25.8855" x2="11.6712" y2="18.8261" gradientUnits="userSpaceOnUse">
<stop stop-color="#32A071"/>
<stop offset="0.0685" stop-color="#2DA771"/>
<stop offset="0.4762" stop-color="#15CF74"/>
<stop offset="0.8009" stop-color="#06E775"/>
<stop offset="1" stop-color="#00F076"/>
</linearGradient>
</defs>
</svg>
